<?xml version="1.0" encoding="UTF-8"?>
<svg version="1.1" xmlns="http://www.w3.org/2000/svg" width="122" height="130">
<path d="M0 0 C1.2684375 0.54043945 1.2684375 0.54043945 2.5625 1.09179688 C6.2197376 2.65794831 9.82890085 4.2564029 13.375 6.0625 C13.375 7.0525 13.375 8.0425 13.375 9.0625 C5.58806222 11.34487831 0.98193614 11.00029343 -6.4375 7.375 C-12.37832007 4.84356682 -15.68658076 4.77383928 -21.625 7.0625 C-23.05779297 7.57876953 -23.05779297 7.57876953 -24.51953125 8.10546875 C-26.4352063 8.80093663 -28.34366729 9.51679464 -30.2421875 10.2578125 C-32.625 11.0625 -32.625 11.0625 -35.625 11.0625 C-35.955 11.7225 -36.285 12.3825 -36.625 13.0625 C-38.47265625 13.6953125 -38.47265625 13.6953125 -40.6875 14.1875 C-41.42097656 14.35507812 -42.15445313 14.52265625 -42.91015625 14.6953125 C-43.47605469 14.81648438 -44.04195312 14.93765625 -44.625 15.0625 C-44.23398231 28.7271522 -44.23398231 28.7271522 -41.625 42.0625 C-40.965 42.3925 -40.305 42.7225 -39.625 43.0625 C-39.150625 44.17625 -38.67625 45.29 -38.1875 46.4375 C-36.8145828 49.62266791 -36.06209381 50.84942874 -33.625 53.0625 C-32.97015625 52.4334375 -32.3153125 51.804375 -31.640625 51.15625 C-25.69621844 45.58126983 -19.80989516 40.96368022 -12.86328125 36.65625 C-12.12464844 36.1303125 -11.38601562 35.604375 -10.625 35.0625 C-10.625 34.4025 -10.625 33.7425 -10.625 33.0625 C-4.625 31.0625 -4.625 31.0625 -2.625 31.0625 C-2.295 32.0525 -1.965 33.0425 -1.625 34.0625 C-3.15775918 36.33643867 -4.6988752 38.39435833 -6.4375 40.5 C-10.53207522 45.45653149 -10.53207522 45.45653149 -13.625 51.0625 C-14.85017236 53.51284472 -16.28614189 55.66471005 -18.0625 57.75 C-21.00732516 62.10834123 -22.96060091 66.08618354 -22.0625 71.375 C-20.49486983 74.30578684 -19.49268861 75.43381274 -16.625 77.0625 C-10.46368214 76.6945193 -4.67619159 74.26964678 -0.24609375 69.98828125 C5.64617718 62.98854735 12.375 53.47366132 12.375 44.0625 C13.035 44.0625 13.695 44.0625 14.375 44.0625 C14.44847656 43.20978516 14.44847656 43.20978516 14.5234375 42.33984375 C15.25682528 34.76571827 16.28266388 28.97618066 21.375 23.0625 C21.87 21.5775 21.87 21.5775 22.375 20.0625 C23.86 20.5575 23.86 20.5575 25.375 21.0625 C26.33819814 36.22395224 22.22236157 56.15567266 12.375 68.0625 C10.1030056 70.58256312 7.80218129 73.07363655 5.49609375 75.5625 C3.30678223 77.97892636 3.30678223 77.97892636 1.8671875 80.76953125 C0.10608188 83.47573282 -0.87314898 83.91907926 -3.9375 84.75 C-6.77083829 85.52314207 -8.89191148 86.20756059 -11.5 87.625 C-16.94827246 88.38775814 -21.09487851 84.82710587 -25.625 82.0625 C-26.69427734 81.55009766 -26.69427734 81.55009766 -27.78515625 81.02734375 C-31.01480838 79.33366206 -32.64062696 77.06740775 -34.625 74.0625 C-34.5 70.5 -34.5 70.5 -33.625 67.0625 C-33.480625 66.11375 -33.33625 65.165 -33.1875 64.1875 C-33.001875 63.48625 -32.81625 62.785 -32.625 62.0625 C-31.635 61.5675 -31.635 61.5675 -30.625 61.0625 C-30.295 60.4025 -29.965 59.7425 -29.625 59.0625 C-27.97948953 57.3688576 -26.31383886 55.7119235 -24.625 54.0625 C-23.51298917 52.95315826 -22.40237395 51.84241627 -21.29296875 50.73046875 C-18.0703125 47.5078125 -14.84765625 44.28515625 -11.625 41.0625 C-15.2075644 41.0625 -17.52368103 44.55390663 -20 46.9375 C-21.14950374 48.04338418 -22.30304106 49.14509384 -23.4609375 50.2421875 C-23.97188965 50.73444824 -24.4828418 51.22670898 -25.00927734 51.73388672 C-26.625 53.0625 -26.625 53.0625 -28.76025391 54.12548828 C-31.21191559 55.35741779 -31.49705768 56.59512617 -32.625 59.0625 C-33.6459375 60.3309375 -33.6459375 60.3309375 -34.6875 61.625 C-36.78884349 63.98276019 -36.78884349 63.98276019 -37.625 67.0625 C-39.11 67.5575 -39.11 67.5575 -40.625 68.0625 C-42.29478819 71.01674065 -43.5521497 73.8439491 -44.625 77.0625 C-45.615 77.0625 -46.605 77.0625 -47.625 77.0625 C-47.14809796 75.43683394 -46.66840334 73.81198689 -46.1875 72.1875 C-45.92066406 71.28257813 -45.65382813 70.37765625 -45.37890625 69.4453125 C-44.17200942 65.6307681 -42.143448 63.14962981 -39.625 60.0625 C-40.2025 60.02125 -40.78 59.98 -41.375 59.9375 C-44.79498433 58.60750609 -45.82751232 56.16161668 -47.625 53.0625 C-48.12 51.5775 -48.12 51.5775 -48.625 50.0625 C-48.92277344 49.33160156 -49.22054687 48.60070312 -49.52734375 47.84765625 C-52.03669239 41.24759586 -53.22403478 34.86023206 -53.9375 27.875 C-54.02572021 27.04427979 -54.11394043 26.21355957 -54.20483398 25.35766602 C-54.70720322 19.75722048 -54.40295368 14.63130511 -53.625 9.0625 C-32.4897541 0.0625 -32.4897541 0.0625 -27.625 0.0625 C-27.295 -0.5975 -26.965 -1.2575 -26.625 -1.9375 C-24.33203125 -2.82421875 -24.33203125 -2.82421875 -21.4375 -3.625 C-20.49519531 -3.89699219 -19.55289063 -4.16898438 -18.58203125 -4.44921875 C-11.76298652 -5.57521689 -6.1223948 -2.66088697 0 0 Z M-7.1875 35.5625 C-8.3940625 36.8 -8.3940625 36.8 -9.625 38.0625 C-7.67500871 37.86778889 -7.67500871 37.86778889 -5.625 37.0625 C-4.34063266 35.0787233 -4.34063266 35.0787233 -3.625 33.0625 C-5.10236982 32.94611269 -5.10236982 32.94611269 -7.1875 35.5625 Z M-10.625 38.0625 C-9.625 40.0625 -9.625 40.0625 -9.625 40.0625 Z M-37.625 55.0625 C-39.11 57.0425 -39.11 57.0425 -40.625 59.0625 C-39.635 59.0625 -38.645 59.0625 -37.625 59.0625 C-36.965 58.0725 -36.305 57.0825 -35.625 56.0625 C-36.285 55.7325 -36.945 55.4025 -37.625 55.0625 Z " fill="#0E419A" transform="translate(76.625,21.9375)"/>
<path d="M0 0 C1.2684375 0.54043945 1.2684375 0.54043945 2.5625 1.09179688 C6.2197376 2.65794831 9.82890085 4.2564029 13.375 6.0625 C13.375 7.0525 13.375 8.0425 13.375 9.0625 C5.58806222 11.34487831 0.98193614 11.00029343 -6.4375 7.375 C-12.37832007 4.84356682 -15.68658076 4.77383928 -21.625 7.0625 C-23.05779297 7.57876953 -23.05779297 7.57876953 -24.51953125 8.10546875 C-26.4352063 8.80093663 -28.34366729 9.51679464 -30.2421875 10.2578125 C-32.625 11.0625 -32.625 11.0625 -35.625 11.0625 C-35.955 11.7225 -36.285 12.3825 -36.625 13.0625 C-38.47265625 13.6953125 -38.47265625 13.6953125 -40.6875 14.1875 C-41.42097656 14.35507812 -42.15445313 14.52265625 -42.91015625 14.6953125 C-43.47605469 14.81648438 -44.04195312 14.93765625 -44.625 15.0625 C-44.23398231 28.7271522 -44.23398231 28.7271522 -41.625 42.0625 C-40.965 42.3925 -40.305 42.7225 -39.625 43.0625 C-38.57781202 45.37504012 -37.58153635 47.7110148 -36.625 50.0625 C-35.97211373 51.40263497 -35.31274405 52.73991528 -34.625 54.0625 C-35.285 54.7225 -35.945 55.3825 -36.625 56.0625 C-37.099375 56.578125 -37.57375 57.09375 -38.0625 57.625 C-39.625 59.0625 -39.625 59.0625 -42.625 60.0625 C-43.44221717 58.96182004 -44.25359451 57.85680269 -45.0625 56.75 C-45.51496094 56.13511719 -45.96742187 55.52023438 -46.43359375 54.88671875 C-47.625 53.0625 -47.625 53.0625 -48.625 50.0625 C-48.92277344 49.33160156 -49.22054687 48.60070312 -49.52734375 47.84765625 C-52.03669239 41.24759586 -53.22403478 34.86023206 -53.9375 27.875 C-54.02572021 27.04427979 -54.11394043 26.21355957 -54.20483398 25.35766602 C-54.70720322 19.75722048 -54.40295368 14.63130511 -53.625 9.0625 C-32.4897541 0.0625 -32.4897541 0.0625 -27.625 0.0625 C-27.295 -0.5975 -26.965 -1.2575 -26.625 -1.9375 C-24.33203125 -2.82421875 -24.33203125 -2.82421875 -21.4375 -3.625 C-20.49519531 -3.89699219 -19.55289063 -4.16898438 -18.58203125 -4.44921875 C-11.76298652 -5.57521689 -6.1223948 -2.66088697 0 0 Z " fill="#0D2D79" transform="translate(76.625,21.9375)"/>
<path d="M0 0 C-1.52079073 3.50827915 -3.5995673 5.95271646 -6.1875 8.75 C-6.98929688 9.63171875 -7.79109375 10.5134375 -8.6171875 11.421875 C-10.06513977 12.98851188 -11.52552792 14.54393162 -13.0078125 16.078125 C-20.22355164 23.76241863 -22.48229285 32.96731849 -25 43 C-25.99 42.34 -26.98 41.68 -28 41 C-28 39.68 -28 38.36 -28 37 C-28.66 36.67 -29.32 36.34 -30 36 C-30.66 32.7 -31.32 29.4 -32 26 C-39.26 25.34 -46.52 24.68 -54 24 C-51.66682722 20.50024083 -50.6957319 20.28666933 -46.80859375 19.02734375 C-45.26848633 18.51397461 -45.26848633 18.51397461 -43.69726562 17.99023438 C-42.62154297 17.64283203 -41.54582031 17.29542969 -40.4375 16.9375 C-38.30901692 16.24494879 -36.18258204 15.54605984 -34.05859375 14.83984375 C-33.11298584 14.53425537 -32.16737793 14.22866699 -31.19311523 13.91381836 C-28.83307851 13.21083527 -28.83307851 13.21083527 -28 11 C-26.88625 10.7525 -25.7725 10.505 -24.625 10.25 C-19.72668803 9.16050204 -15.73686089 6.831278 -11.41796875 4.33984375 C-9 3 -9 3 -6 2 C-5.319375 1.649375 -4.63875 1.29875 -3.9375 0.9375 C-2 0 -2 0 0 0 Z " fill="#0C1D43" transform="translate(109,25)"/>
<path d="M0 0 C1.2684375 0.54043945 1.2684375 0.54043945 2.5625 1.09179688 C6.2197376 2.65794831 9.82890085 4.2564029 13.375 6.0625 C13.375 7.0525 13.375 8.0425 13.375 9.0625 C5.58806222 11.34487831 0.98193614 11.00029343 -6.4375 7.375 C-12.37832007 4.84356682 -15.68658076 4.77383928 -21.625 7.0625 C-22.58019531 7.40667969 -23.53539063 7.75085937 -24.51953125 8.10546875 C-26.4352063 8.80093663 -28.34366729 9.51679464 -30.2421875 10.2578125 C-32.625 11.0625 -32.625 11.0625 -35.625 11.0625 C-35.955 11.7225 -36.285 12.3825 -36.625 13.0625 C-39.27360427 13.65605614 -41.91697322 13.80459269 -44.625 14.0625 C-43.965 13.7325 -43.305 13.4025 -42.625 13.0625 C-42.295 12.0725 -41.965 11.0825 -41.625 10.0625 C-42.615 9.7325 -43.605 9.4025 -44.625 9.0625 C-44.625 8.4025 -44.625 7.7425 -44.625 7.0625 C-49.08 8.5475 -49.08 8.5475 -53.625 10.0625 C-52.22819962 7.26889924 -50.72833703 7.16938169 -47.8203125 6.1171875 C-46.84449219 5.76269531 -45.86867188 5.40820312 -44.86328125 5.04296875 C-43.32220703 4.49576172 -43.32220703 4.49576172 -41.75 3.9375 C-40.73035156 3.56496094 -39.71070313 3.19242188 -38.66015625 2.80859375 C-31.02541209 0.0625 -31.02541209 0.0625 -27.625 0.0625 C-27.295 -0.5975 -26.965 -1.2575 -26.625 -1.9375 C-24.33203125 -2.82421875 -24.33203125 -2.82421875 -21.4375 -3.625 C-20.49519531 -3.89699219 -19.55289063 -4.16898438 -18.58203125 -4.44921875 C-11.76298652 -5.57521689 -6.1223948 -2.66088697 0 0 Z " fill="#124CA6" transform="translate(76.625,21.9375)"/>
<path d="M0 0 C0.99 0.33 1.98 0.66 3 1 C3.96402577 16.17447966 -0.15908044 36.07734746 -10 48 C-11.57105135 49.7817387 -13.15443204 51.55268239 -14.75 53.3125 C-15.54921875 54.19550781 -16.3484375 55.07851562 -17.171875 55.98828125 C-17.77515625 56.65214844 -18.3784375 57.31601563 -19 58 C-19.66 57.67 -20.32 57.34 -21 57 C-21.72886734 54.2303041 -22 51.87137415 -22 49 C-20.64453125 46.90625 -20.64453125 46.90625 -18.8125 44.5 C-14.38169491 38.35811165 -10 31.73965641 -10 24 C-9.34 24 -8.68 24 -8 24 C-7.95101562 23.43152344 -7.90203125 22.86304687 -7.8515625 22.27734375 C-7.11817472 14.70321827 -6.09233612 8.91368066 -1 3 C-0.67 2.01 -0.34 1.02 0 0 Z " fill="#169DEB" transform="translate(99,42)"/>
<path d="M0 0 C1.32 0.66 2.64 1.32 4 2 C4.17948891 5.94875611 4.2095872 8.66503299 2 12 C-0.19307428 13.09653714 -2.35245205 13.65378415 -4.7109375 14.31640625 C-7.17272363 14.96592711 -7.17272363 14.96592711 -9.875 16.5625 C-15.26083642 17.3165171 -19.67866852 14.02916864 -24 11 C-24.66 10.01 -25.32 9.02 -26 8 C-25.34 8 -24.68 8 -24 8 C-23.67 7.34 -23.34 6.68 -23 6 C-23.66 6 -24.32 6 -25 6 C-25 5.34 -25 4.68 -25 4 C-23 2.375 -23 2.375 -21 1 C-20.236875 1.886875 -19.47375 2.77375 -18.6875 3.6875 C-17.09052537 5.16953193 -17.09052537 5.16953193 -15 6 C-9.26843626 5.51203137 -4.42863292 3.65933988 0 0 Z " fill="#1453B4" transform="translate(75,93)"/>
<path d="M0 0 C1.65 0 3.3 0 5 0 C5.495 1.485 5.495 1.485 6 3 C4.49177548 5.30390202 2.97700826 7.37191058 1.25 9.5 C0.79367188 10.08136719 0.33734375 10.66273437 -0.1328125 11.26171875 C-2.28930727 13.98538411 -4.45762102 16.62711295 -7 19 C-7.495 18.01 -7.495 18.01 -8 17 C-8.99 17 -9.98 17 -11 17 C-8.69 14.69 -6.38 12.38 -4 10 C-7.5825644 10 -9.89868103 13.49140663 -12.375 15.875 C-13.52450374 16.98088418 -14.67804106 18.08259384 -15.8359375 19.1796875 C-16.34688965 19.67194824 -16.8578418 20.16420898 -17.38427734 20.67138672 C-19 22 -19 22 -21.13525391 23.06298828 C-23.58691559 24.29491779 -23.87205768 25.53262617 -25 28 C-26.0209375 29.2684375 -26.0209375 29.2684375 -27.0625 30.5625 C-29.16384349 32.92026019 -29.16384349 32.92026019 -30 36 C-31.485 36.495 -31.485 36.495 -33 37 C-34.66978819 39.95424065 -35.9271497 42.7814491 -37 46 C-37.99 46 -38.98 46 -40 46 C-39.52309796 44.37433394 -39.04340334 42.74948689 -38.5625 41.125 C-38.16224609 39.76761719 -38.16224609 39.76761719 -37.75390625 38.3828125 C-33.66553742 25.46102501 -18.73989822 14.56752439 -8.0546875 7.14453125 C-5.05403842 5.16899454 -5.05403842 5.16899454 -3 3 C-2.01 2.34 -1.02 1.68 0 1 C0 0.67 0 0.34 0 0 Z M0.4375 4.5 C-0.7690625 5.7375 -0.7690625 5.7375 -2 7 C-0.05000871 6.80528889 -0.05000871 6.80528889 2 6 C3.28436734 4.0162233 3.28436734 4.0162233 4 2 C2.52263018 1.88361269 2.52263018 1.88361269 0.4375 4.5 Z M-3 7 C-2 9 -2 9 -2 9 Z " fill="#319CED" transform="translate(69,53)"/>
<path d="M0 0 C5.80907689 0.64545299 10.9190594 2.68218762 16.3125 4.8125 C17.23095703 5.15603516 18.14941406 5.49957031 19.09570312 5.85351562 C20.4037793 6.36881836 20.4037793 6.36881836 21.73828125 6.89453125 C22.53274658 7.20237549 23.32721191 7.51021973 24.14575195 7.82739258 C26 9 26 9 26.76635742 11.1315918 C26.8820105 12.05645386 26.8820105 12.05645386 27 13 C18.55448533 15.47540947 13.12293151 14.2777214 5.125 10.9375 C4.43664062 10.65583984 3.74828125 10.37417969 3.0390625 10.08398438 C1.35710091 9.39484734 -0.32177697 8.69819202 -2 8 C-1.34 7.67 -0.68 7.34 0 7 C0 4.69 0 2.38 0 0 Z " fill="#1C9CED" transform="translate(63,18)"/>
<path d="M0 0 C0.99 0.33 1.98 0.66 3 1 C3 1.66 3 2.32 3 3 C3.66 3 4.32 3 5 3 C6.09658936 6.28976808 5.79953138 7.71303767 5 11 C4.34 11 3.68 11 3 11 C1.655782 12.82305433 1.655782 12.82305433 0.3125 15.125 C-2.60635226 19.68705797 -5.74341168 22.67986111 -10 26 C-12 20.375 -12 20.375 -12 17 C-10.5390625 14.66015625 -10.5390625 14.66015625 -8.625 12.0625 C-6.45911822 9.10780942 -4.60446854 6.28772795 -3 3 C-1.375 1.25 -1.375 1.25 0 0 Z " fill="#1087E6" transform="translate(89,74)"/>
<path d="M0 0 C-0.33 2.31 -0.66 4.62 -1 7 C-1.66 7 -2.32 7 -3 7 C-3 7.66 -3 8.32 -3 9 C-4.43344 9.53190541 -5.87195367 10.05015258 -7.3125 10.5625 C-8.51326172 10.99755859 -8.51326172 10.99755859 -9.73828125 11.44140625 C-12 12 -12 12 -15 11 C-15 10.01 -15 9.02 -15 8 C-14.34 8 -13.68 8 -13 8 C-12.67 7.01 -12.34 6.02 -12 5 C-12.66 4.34 -13.32 3.68 -14 3 C-12.23358317 2.3012307 -10.46167336 1.61633417 -8.6875 0.9375 C-7.20830078 0.36322266 -7.20830078 0.36322266 -5.69921875 -0.22265625 C-3 -1 -3 -1 0 0 Z " fill="#1969C3" transform="translate(64,18)"/>
<path d="M0 0 C1.0625 1.875 1.0625 1.875 2 4 C0.75584799 6.48830402 -0.73341052 8.67253576 -2.48828125 10.828125 C-4.25836341 13.37118878 -5.17772809 15.82514344 -6.1875 18.75 C-6.53167969 19.73484375 -6.87585937 20.7196875 -7.23046875 21.734375 C-7.48441406 22.48203125 -7.73835938 23.2296875 -8 24 C-8.33 24 -8.66 24 -9 24 C-8.67 20.7 -8.34 17.4 -8 14 C-7.34 14 -6.68 14 -6 14 C-6.33 12.35 -6.66 10.7 -7 9 C-8.32 9.33 -9.64 9.66 -11 10 C-7.69984002 5.86062408 -4.82675589 2.41337795 0 0 Z " fill="#2263C0" transform="translate(61,69)"/>
<path d="M0 0 C1.32 0.66 2.64 1.32 4 2 C4.17942163 5.94727588 4.09350689 8.5980513 2 12 C0.68 11.67 -0.64 11.34 -2 11 C-2 10.34 -2 9.68 -2 9 C-4.78918149 7.89459074 -4.78918149 7.89459074 -7 8 C-6.875 6.25 -6.875 6.25 -6 4 C-2.9375 1.75 -2.9375 1.75 0 0 Z " fill="#1568C7" transform="translate(75,93)"/>
<path d="M0 0 C0.99 0.33 1.98 0.66 3 1 C3.10477512 6.78591511 2.99250545 12.29309366 2 18 C1.67 18 1.34 18 1 18 C0.731875 16.865625 0.46375 15.73125 0.1875 14.5625 C-0.4003125 12.7990625 -0.4003125 12.7990625 -1 11 C-1.99 10.67 -2.98 10.34 -4 10 C-4.66 13.3 -5.32 16.6 -6 20 C-6.33 20 -6.66 20 -7 20 C-6.85367089 12.52391267 -6.3400607 8.3400607 -1 3 C-0.67 2.01 -0.34 1.02 0 0 Z " fill="#2EA2D2" transform="translate(99,42)"/>
<path d="M0 0 C0 3 0 3 -1 6 C-0.34 6 0.32 6 1 6 C1.3125 8.25 1.3125 8.25 1 11 C-1.5 13.3125 -1.5 13.3125 -4 15 C-6 9.375 -6 9.375 -6 6 C-2.66666667 1.33333333 -2.66666667 1.33333333 0 0 Z " fill="#1378E0" transform="translate(83,85)"/>
<path d="M0 0 C1.65 0 3.3 0 5 0 C5.33 0.99 5.66 1.98 6 3 C4.49177548 5.30390202 2.97700826 7.37191058 1.25 9.5 C0.79367188 10.08136719 0.33734375 10.66273437 -0.1328125 11.26171875 C-2.28930727 13.98538411 -4.45762102 16.62711295 -7 19 C-7.33 18.34 -7.66 17.68 -8 17 C-8.99 17 -9.98 17 -11 17 C-10.43410156 16.44570312 -9.86820313 15.89140625 -9.28515625 15.3203125 C-8.55167969 14.59585938 -7.81820312 13.87140625 -7.0625 13.125 C-6.33160156 12.40570313 -5.60070313 11.68640625 -4.84765625 10.9453125 C-2.94332001 9.12972808 -2.94332001 9.12972808 -2 7 C-0.33333333 6 1.33333333 5 3 4 C3.33 3.34 3.66 2.68 4 2 C2.68 1.67 1.36 1.34 0 1 C0 0.67 0 0.34 0 0 Z " fill="#357CB4" transform="translate(69,53)"/>
<path d="M0 0 C5.75 0.875 5.75 0.875 8 2 C8 2.66 8 3.32 8 4 C8.66 4 9.32 4 10 4 C8.768606 6.46278801 7.21935077 7.42497687 5 9 C5 8.34 5 7.68 5 7 C3.02 7.99 3.02 7.99 1 9 C0.01 8.34 -0.98 7.68 -2 7 C-1.34 7 -0.68 7 0 7 C0 4.69 0 2.38 0 0 Z " fill="#1A8EE4" transform="translate(63,18)"/>
<path d="M0 0 C0.33 1.32 0.66 2.64 1 4 C0.1028125 4.309375 0.1028125 4.309375 -0.8125 4.625 C-4.5800039 6.99314531 -5.63848496 10.91545487 -7 15 C-7.99 15 -8.98 15 -10 15 C-9.52309796 13.37433394 -9.04340334 11.74948689 -8.5625 10.125 C-8.16224609 8.76761719 -8.16224609 8.76761719 -7.75390625 7.3828125 C-6.36658386 2.99801116 -4.90170628 0 0 0 Z " fill="#335793" transform="translate(39,84)"/>
<path d="M0 0 C0.66 0.33 1.32 0.66 2 1 C1.26532365 3.82914839 0.46581614 6.46032588 -1 9 C-4.1875 10 -4.1875 10 -7 10 C-7 8.68 -7 7.36 -7 6 C-6.34 6 -5.68 6 -5 6 C-4.731875 5.38125 -4.46375 4.7625 -4.1875 4.125 C-3 2 -3 2 0 0 Z " fill="#0D5CBD" transform="translate(56,20)"/>
<path d="M0 0 C-0.33 1.32 -0.66 2.64 -1 4 C-3.31 4.33 -5.62 4.66 -8 5 C-8 4.34 -8 3.68 -8 3 C-12.455 4.485 -12.455 4.485 -17 6 C-15.55630957 3.11261913 -13.74330462 2.95547092 -10.75 1.875 C-9.79609375 1.52179687 -8.8421875 1.16859375 -7.859375 0.8046875 C-5.0781977 0.02200646 -2.86925724 -0.15707613 0 0 Z " fill="#1E4797" transform="translate(40,26)"/>
<path d="M0 0 C2.36834484 2.36834484 4.50281739 5.00563478 6 8 C0.46153846 7.50769231 0.46153846 7.50769231 -1.875 4.9375 C-2.431875 3.9784375 -2.431875 3.9784375 -3 3 C-4.32 3.33 -5.64 3.66 -7 4 C-7 3.01 -7 2.02 -7 1 C-3.375 -1.125 -3.375 -1.125 0 0 Z " fill="#1955A0" transform="translate(69,98)"/>
<path d="M0 0 C0.33 0.66 0.66 1.32 1 2 C1.99 2.33 2.98 2.66 4 3 C2.375 5.0625 2.375 5.0625 0 7 C-3.6985004 6.85205998 -5.35805573 6.64194427 -8 4 C-5.09399739 2.74335022 -3.20395416 2 0 2 C0 1.34 0 0.68 0 0 Z " fill="#1755AD" transform="translate(49,20)"/>
<path d="M0 0 C0.66 0 1.32 0 2 0 C0.44499019 3.81684226 -2.03595495 6.19195732 -5 9 C-5.33 8.01 -5.66 7.02 -6 6 C-6.99 6.495 -6.99 6.495 -8 7 C-8.66 6.34 -9.32 5.68 -10 5 C-7.42922089 1.71511559 -5.0156095 1.52377515 -1 1 C-0.67 0.67 -0.34 0.34 0 0 Z " fill="#263050" transform="translate(107,25)"/>
<path d="M0 0 C-0.17625835 2.37948772 -0.69719773 3.70225849 -2.40234375 5.37890625 C-3.90649092 6.62115486 -5.45129851 7.81376056 -7 9 C-7.66 8.67 -8.32 8.34 -9 8 C-7.79618552 5.50638429 -6.54571278 3.31856917 -5 1 C-2 0 -2 0 0 0 Z " fill="#2B72D2" transform="translate(46,76)"/>
<path d="M0 0 C0.99 0.33 1.98 0.66 3 1 C3 1.99 3 2.98 3 4 C-2.16044765 5.512545 -5.65998179 6.33500455 -11 5 C-9.375 3.4375 -9.375 3.4375 -7 2 C-3.75 2.3125 -3.75 2.3125 -1 3 C-0.67 2.01 -0.34 1.02 0 0 Z " fill="#3A9BCB" transform="translate(87,27)"/>
<path d="M0 0 C0.99 0.33 1.98 0.66 3 1 C2.75 2.875 2.75 2.875 2 5 C0.1875 6.3125 0.1875 6.3125 -2 7 C-3.32 6.67 -4.64 6.34 -6 6 C-4.02 4.02 -2.04 2.04 0 0 Z " fill="#3E90E0" transform="translate(48,70)"/>
<path d="M0 0 C1.98 0.66 3.96 1.32 6 2 C2.8745041 4.64465038 -0.08788267 5.84414715 -4 7 C-4.66 6.34 -5.32 5.68 -6 5 C-5.34 5 -4.68 5 -4 5 C-3.67 4.01 -3.34 3.02 -3 2 C-3 2.99 -3 3.98 -3 5 C-2.34 5 -1.68 5 -1 5 C-1.33 4.01 -1.66 3.02 -2 2 C-1.34 2 -0.68 2 0 2 C0 1.34 0 0.68 0 0 Z " fill="#2164C3" transform="translate(66,103)"/>
<path d="M0 0 C2.97 0 5.94 0 9 0 C6.375 4.875 6.375 4.875 3 6 C0 2.25 0 2.25 0 0 Z " fill="#1C3684" transform="translate(31,76)"/>
<path d="M0 0 C1.0625 1.875 1.0625 1.875 2 4 C1 6 1 6 -1 9 C-4 4.25 -4 4.25 -4 2 C-2.68 1.34 -1.36 0.68 0 0 Z " fill="#1456A5" transform="translate(61,69)"/>
<path d="M0 0 C0.66 0.33 1.32 0.66 2 1 C-2 5 -6 9 -10 13 C-10 10 -10 10 -7.8125 7.51953125 C-6.884375 6.62621094 -5.95625 5.73289062 -5 4.8125 C-4.071875 3.91144531 -3.14375 3.01039062 -2.1875 2.08203125 C-1.1046875 1.05142578 -1.1046875 1.05142578 0 0 Z " fill="#000000" transform="translate(58,67)"/>
<path d="M0 0 C1.98 0 3.96 0 6 0 C4.02 2.31 2.04 4.62 0 7 C-0.99 6.67 -1.98 6.34 -3 6 C-2 3 -2 3 0 1 C0 0.67 0 0.34 0 0 Z " fill="#4CADD1" transform="translate(66,55)"/>
<path d="M0 0 C1.32 0 2.64 0 4 0 C4.33 1.32 4.66 2.64 5 4 C0.545 4.495 0.545 4.495 -4 5 C-3.34 4.67 -2.68 4.34 -2 4 C-0.86649466 1.98330173 -0.86649466 1.98330173 0 0 Z " fill="#1A438F" transform="translate(36,31)"/>
<path d="M0 0 C1.98 0.66 3.96 1.32 6 2 C5.67 2.99 5.34 3.98 5 5 C2.36 4.67 -0.28 4.34 -3 4 C-2.67 3.34 -2.34 2.68 -2 2 C-1.01 2.33 -0.02 2.66 1 3 C0.67 2.01 0.34 1.02 0 0 Z " fill="#1CABF1" transform="translate(81,25)"/>
<path d="M0 0 C0.99 1.32 1.98 2.64 3 4 C1.02 4.99 1.02 4.99 -1 6 C-1 6.66 -1 7.32 -1 8 C-1.66 8 -2.32 8 -3 8 C-3.1875 5.125 -3.1875 5.125 -3 2 C-2.01 1.34 -1.02 0.68 0 0 Z " fill="#0557C4" transform="translate(66,100)"/>
<path d="M0 0 C0.66 0.33 1.32 0.66 2 1 C2 2.98 2 4.96 2 7 C1.01 7.33 0.02 7.66 -1 8 C-1 7.01 -1 6.02 -1 5 C-1.66 5 -2.32 5 -3 5 C-3 3 -3 3 -1.5 1.375 C-1.005 0.92125 -0.51 0.4675 0 0 Z " fill="#0A48AD" transform="translate(53,94)"/>
<path d="M0 0 C0.99 0 1.98 0 3 0 C3.33 1.32 3.66 2.64 4 4 C3.38125 4.28875 2.7625 4.5775 2.125 4.875 C-0.13325765 5.93720042 -0.13325765 5.93720042 -2 8 C-1.125 1.125 -1.125 1.125 0 0 Z " fill="#1D4799" transform="translate(36,84)"/>
<path d="M0 0 C0.33 0.66 0.66 1.32 1 2 C1.66 2.33 2.32 2.66 3 3 C1.35 4.65 -0.3 6.3 -2 8 C-3.34882814 5.30234372 -2.80338265 3.84835666 -2 1 C-1.34 0.67 -0.68 0.34 0 0 Z " fill="#1D86E6" transform="translate(86,87)"/>
<path d="M0 0 C-0.56371414 3.26954202 -1.49962266 4.82575883 -4 7 C-4.66 5.68 -5.32 4.36 -6 3 C-2.25 0 -2.25 0 0 0 Z " fill="#0C4DB3" transform="translate(54,78)"/>
<path d="M0 0 C1.875 0.1875 1.875 0.1875 4 1 C5.25 3.5625 5.25 3.5625 6 6 C4.35 5.67 2.7 5.34 1 5 C0.67 3.35 0.34 1.7 0 0 Z " fill="#1B3788" transform="translate(35,69)"/>
<path d="M0 0 C0.99 0.33 1.98 0.66 3 1 C1.68 2.65 0.36 4.3 -1 6 C-2.32 5.34 -3.64 4.68 -5 4 C-2.6875 1.9375 -2.6875 1.9375 0 0 Z " fill="#3DB0F3" transform="translate(61,60)"/>
<path d="M0 0 C0.33 1.32 0.66 2.64 1 4 C-1.97 4 -4.94 4 -8 4 C-6 1 -6 1 -4 0.3125 C-2 0 -2 0 0 0 Z " fill="#26334D" transform="translate(63,45)"/>
<path d="M0 0 C2.475 0.495 2.475 0.495 5 1 C4.67 2.98 4.34 4.96 4 7 C2.68 6.67 1.36 6.34 0 6 C0 4.02 0 2.04 0 0 Z " fill="#207FC8" transform="translate(90,78)"/>
<path d="M0 0 C0.66 0 1.32 0 2 0 C3.4783226 2.95664519 3.06032783 5.74229737 3 9 C2.01 8.34 1.02 7.68 0 7 C-0.1875 3.375 -0.1875 3.375 0 0 Z " fill="#16294B" transform="translate(81,59)"/>
<path d="M0 0 C0.66 0.33 1.32 0.66 2 1 C1.67 2.98 1.34 4.96 1 7 C-0.32 7 -1.64 7 -3 7 C-3 6.01 -3 5.02 -3 4 C-2.34 3.67 -1.68 3.34 -1 3 C-0.67 2.01 -0.34 1.02 0 0 Z " fill="#094CB6" transform="translate(61,101)"/>
<path d="M0 0 C1.67542976 0.28604898 3.34385343 0.61781233 5 1 C3.768606 3.46278801 2.21935077 4.42497687 0 6 C-0.38218767 4.34385343 -0.71395102 2.67542976 -1 1 C-0.67 0.67 -0.34 0.34 0 0 Z " fill="#058BEC" transform="translate(68,21)"/>
<path d="M0 0 C0.99 0.33 1.98 0.66 3 1 C2.67 3.31 2.34 5.62 2 8 C0 6.1875 0 6.1875 -2 4 C-2 3.01 -2 2.02 -2 1 C-1.34 0.67 -0.68 0.34 0 0 Z " fill="#1472CF" transform="translate(61,17)"/>
<path d="M0 0 C1.65 0.33 3.3 0.66 5 1 C4.34 2.32 3.68 3.64 3 5 C2.34 4.67 1.68 4.34 1 4 C0.34 4 -0.32 4 -1 4 C-0.67 2.68 -0.34 1.36 0 0 Z " fill="#0B63CE" transform="translate(69,97)"/>
<path d="M0 0 C0.66 0.99 1.32 1.98 2 3 C0.68 4.32 -0.64 5.64 -2 7 C-2 6.34 -2 5.68 -2 5 C-2.66 4.67 -3.32 4.34 -4 4 C-2.68 2.68 -1.36 1.36 0 0 Z " fill="#4CA0E7" transform="translate(67,61)"/>
<path d="M0 0 C0 0.99 0 1.98 0 3 C-1.98 3.99 -1.98 3.99 -4 5 C-2.68 3.35 -1.36 1.7 0 0 Z " fill="#000000" transform="translate(84,96)"/>
<path d="M0 0 C0 0.99 0 1.98 0 3 C-0.99 3.495 -0.99 3.495 -2 4 C-1.34 2.68 -0.68 1.36 0 0 Z " fill="#000000" transform="translate(100,37)"/>
<path d="M0 0 C0 0.99 0 1.98 0 3 C-0.66 2.67 -1.32 2.34 -2 2 C-1.34 1.34 -0.68 0.68 0 0 Z " fill="#000000" transform="translate(76,89)"/>
<path d="M0 0 C0.66 0.33 1.32 0.66 2 1 C1.01 1 0.02 1 -1 1 C-0.67 0.67 -0.34 0.34 0 0 Z " fill="#000000" transform="translate(50,66)"/>
<path d="M0 0 C0 3 0 3 0 3 Z " fill="#000000" transform="translate(71,61)"/>
<path d="M0 0 C2 1 2 1 2 1 Z " fill="#000000" transform="translate(58,109)"/>
<path d="M0 0 C2 1 2 1 2 1 Z " fill="#000000" transform="translate(56,108)"/>
<path d="M0 0 C2 1 2 1 2 1 Z " fill="#000000" transform="translate(54,107)"/>
<path d="M0 0 C2 1 2 1 2 1 Z " fill="#000000" transform="translate(51,105)"/>
<path d="M0 0 C2 1 2 1 2 1 Z " fill="#000000" transform="translate(60,98)"/>
<path d="M0 0 C2 1 2 1 2 1 Z " fill="#000000" transform="translate(57,96)"/>
<path d="M0 0 C2 1 2 1 2 1 Z " fill="#000000" transform="translate(69,95)"/>
<path d="" fill="#000000" transform="translate(0,0)"/>
<path d="" fill="#000000" transform="translate(0,0)"/>
<path d="" fill="#000000" transform="translate(0,0)"/>
<path d="" fill="#000000" transform="translate(0,0)"/>
<path d="" fill="#000000" transform="translate(0,0)"/>
<path d="" fill="#000000" transform="translate(0,0)"/>
<path d="" fill="#000000" transform="translate(0,0)"/>
<path d="" fill="#000000" transform="translate(0,0)"/>
<path d="" fill="#000000" transform="translate(0,0)"/>
<path d="M0 0 C2 1 2 1 2 1 Z " fill="#000000" transform="translate(54,63)"/>
<path d="M0 0 C2 1 2 1 2 1 Z " fill="#000000" transform="translate(58,60)"/>
<path d="M0 0 C2 1 2 1 2 1 Z " fill="#000000" transform="translate(61,58)"/>
<path d="M0 0 C2 1 2 1 2 1 Z " fill="#000000" transform="translate(64,56)"/>
<path d="M0 0 C2 1 2 1 2 1 Z " fill="#000000" transform="translate(76,38)"/>
<path d="M0 0 C2 1 2 1 2 1 Z " fill="#000000" transform="translate(87,33)"/>
<path d="M0 0 C2 1 2 1 2 1 Z " fill="#000000" transform="translate(82,33)"/>
<path d="M0 0 C2 1 2 1 2 1 Z " fill="#000000" transform="translate(89,32)"/>
<path d="" fill="#000000" transform="translate(0,0)"/>
<path d="M0 0 C2 1 2 1 2 1 Z " fill="#000000" transform="translate(62,27)"/>
<path d="M0 0 C2 1 2 1 2 1 Z " fill="#000000" transform="translate(76,21)"/>
<path d="M0 0 C2 1 2 1 2 1 Z " fill="#000000" transform="translate(71,19)"/>
<path d="" fill="#000000" transform="translate(0,0)"/>
<path d="" fill="#000000" transform="translate(0,0)"/>
<path d="" fill="#000000" transform="translate(0,0)"/>
<path d="" fill="#000000" transform="translate(0,0)"/>
<path d="" fill="#000000" transform="translate(0,0)"/>
<path d="" fill="#000000" transform="translate(0,0)"/>
<path d="" fill="#000000" transform="translate(0,0)"/>
<path d="" fill="#000000" transform="translate(0,0)"/>
<path d="" fill="#000000" transform="translate(0,0)"/>
<path d="" fill="#000000" transform="translate(0,0)"/>
<path d="" fill="#000000" transform="translate(0,0)"/>
<path d="" fill="#000000" transform="translate(0,0)"/>
<path d="" fill="#000000" transform="translate(0,0)"/>
<path d="" fill="#000000" transform="translate(0,0)"/>
<path d="" fill="#000000" transform="translate(0,0)"/>
<path d="" fill="#000000" transform="translate(0,0)"/>
<path d="" fill="#000000" transform="translate(0,0)"/>
<path d="" fill="#000000" transform="translate(0,0)"/>
<path d="" fill="#000000" transform="translate(0,0)"/>
<path d="" fill="#000000" transform="translate(0,0)"/>
<path d="" fill="#000000" transform="translate(0,0)"/>
<path d="" fill="#000000" transform="translate(0,0)"/>
<path d="" fill="#000000" transform="translate(0,0)"/>
<path d="" fill="#000000" transform="translate(0,0)"/>
<path d="" fill="#000000" transform="translate(0,0)"/>
<path d="" fill="#000000" transform="translate(0,0)"/>
<path d="" fill="#000000" transform="translate(0,0)"/>
<path d="" fill="#000000" transform="translate(0,0)"/>
<path d="" fill="#000000" transform="translate(0,0)"/>
<path d="" fill="#000000" transform="translate(0,0)"/>
<path d="" fill="#000000" transform="translate(0,0)"/>
<path d="" fill="#000000" transform="translate(0,0)"/>
<path d="" fill="#000000" transform="translate(0,0)"/>
<path d="" fill="#000000" transform="translate(0,0)"/>
<path d="" fill="#000000" transform="translate(0,0)"/>
<path d="" fill="#000000" transform="translate(0,0)"/>
<path d="" fill="#000000" transform="translate(0,0)"/>
<path d="" fill="#000000" transform="translate(0,0)"/>
<path d="" fill="#000000" transform="translate(0,0)"/>
<path d="" fill="#000000" transform="translate(0,0)"/>
<path d="" fill="#000000" transform="translate(0,0)"/>
<path d="" fill="#000000" transform="translate(0,0)"/>
<path d="" fill="#000000" transform="translate(0,0)"/>
<path d="" fill="#000000" transform="translate(0,0)"/>
<path d="" fill="#000000" transform="translate(0,0)"/>
<path d="" fill="#000000" transform="translate(0,0)"/>
<path d="" fill="#000000" transform="translate(0,0)"/>
<path d="" fill="#000000" transform="translate(0,0)"/>
<path d="" fill="#000000" transform="translate(0,0)"/>
<path d="" fill="#000000" transform="translate(0,0)"/>
<path d="" fill="#000000" transform="translate(0,0)"/>
<path d="" fill="#000000" transform="translate(0,0)"/>
<path d="" fill="#000000" transform="translate(0,0)"/>
<path d="" fill="#000000" transform="translate(0,0)"/>
<path d="" fill="#000000" transform="translate(0,0)"/>
<path d="" fill="#000000" transform="translate(0,0)"/>
<path d="" fill="#000000" transform="translate(0,0)"/>
<path d="" fill="#000000" transform="translate(0,0)"/>
<path d="" fill="#000000" transform="translate(0,0)"/>
<path d="" fill="#000000" transform="translate(0,0)"/>
<path d="" fill="#000000" transform="translate(0,0)"/>
<path d="" fill="#000000" transform="translate(0,0)"/>
<path d="" fill="#000000" transform="translate(0,0)"/>
<path d="" fill="#000000" transform="translate(0,0)"/>
<path d="" fill="#000000" transform="translate(0,0)"/>
<path d="" fill="#000000" transform="translate(0,0)"/>
<path d="" fill="#000000" transform="translate(0,0)"/>
<path d="" fill="#000000" transform="translate(0,0)"/>
<path d="" fill="#000000" transform="translate(0,0)"/>
<path d="" fill="#000000" transform="translate(0,0)"/>
<path d="" fill="#000000" transform="translate(0,0)"/>
<path d="" fill="#000000" transform="translate(0,0)"/>
<path d="" fill="#000000" transform="translate(0,0)"/>
<path d="" fill="#000000" transform="translate(0,0)"/>
<path d="" fill="#000000" transform="translate(0,0)"/>
<path d="" fill="#000000" transform="translate(0,0)"/>
<path d="" fill="#000000" transform="translate(0,0)"/>
<path d="" fill="#000000" transform="translate(0,0)"/>
<path d="" fill="#000000" transform="translate(0,0)"/>
<path d="" fill="#000000" transform="translate(0,0)"/>
<path d="" fill="#000000" transform="translate(0,0)"/>
<path d="" fill="#000000" transform="translate(0,0)"/>
<path d="" fill="#000000" transform="translate(0,0)"/>
<path d="" fill="#000000" transform="translate(0,0)"/>
<path d="" fill="#000000" transform="translate(0,0)"/>
<path d="" fill="#000000" transform="translate(0,0)"/>
<path d="" fill="#000000" transform="translate(0,0)"/>
<path d="" fill="#000000" transform="translate(0,0)"/>
<path d="" fill="#000000" transform="translate(0,0)"/>
<path d="" fill="#000000" transform="translate(0,0)"/>
<path d="" fill="#000000" transform="translate(0,0)"/>
<path d="" fill="#000000" transform="translate(0,0)"/>
<path d="" fill="#000000" transform="translate(0,0)"/>
<path d="" fill="#000000" transform="translate(0,0)"/>
<path d="" fill="#000000" transform="translate(0,0)"/>
<path d="" fill="#000000" transform="translate(0,0)"/>
<path d="" fill="#000000" transform="translate(0,0)"/>
<path d="" fill="#000000" transform="translate(0,0)"/>
<path d="" fill="#000000" transform="translate(0,0)"/>
<path d="" fill="#000000" transform="translate(0,0)"/>
<path d="" fill="#000000" transform="translate(0,0)"/>
<path d="" fill="#000000" transform="translate(0,0)"/>
<path d="" fill="#000000" transform="translate(0,0)"/>
<path d="" fill="#000000" transform="translate(0,0)"/>
<path d="" fill="#000000" transform="translate(0,0)"/>
<path d="" fill="#000000" transform="translate(0,0)"/>
<path d="" fill="#000000" transform="translate(0,0)"/>
<path d="" fill="#000000" transform="translate(0,0)"/>
<path d="" fill="#000000" transform="translate(0,0)"/>
<path d="" fill="#000000" transform="translate(0,0)"/>
<path d="" fill="#000000" transform="translate(0,0)"/>
<path d="" fill="#000000" transform="translate(0,0)"/>
<path d="" fill="#000000" transform="translate(0,0)"/>
<path d="" fill="#000000" transform="translate(0,0)"/>
<path d="" fill="#000000" transform="translate(0,0)"/>
<path d="" fill="#000000" transform="translate(0,0)"/>
<path d="" fill="#000000" transform="translate(0,0)"/>
<path d="" fill="#000000" transform="translate(0,0)"/>
<path d="" fill="#000000" transform="translate(0,0)"/>
<path d="" fill="#000000" transform="translate(0,0)"/>
<path d="" fill="#000000" transform="translate(0,0)"/>
<path d="" fill="#000000" transform="translate(0,0)"/>
<path d="" fill="#000000" transform="translate(0,0)"/>
<path d="" fill="#000000" transform="translate(0,0)"/>
<path d="" fill="#000000" transform="translate(0,0)"/>
<path d="" fill="#000000" transform="translate(0,0)"/>
<path d="" fill="#000000" transform="translate(0,0)"/>
<path d="" fill="#000000" transform="translate(0,0)"/>
<path d="" fill="#000000" transform="translate(0,0)"/>
<path d="" fill="#000000" transform="translate(0,0)"/>
<path d="" fill="#000000" transform="translate(0,0)"/>
<path d="" fill="#000000" transform="translate(0,0)"/>
<path d="" fill="#000000" transform="translate(0,0)"/>
<path d="" fill="#000000" transform="translate(0,0)"/>
<path d="" fill="#000000" transform="translate(0,0)"/>
<path d="" fill="#000000" transform="translate(0,0)"/>
<path d="" fill="#000000" transform="translate(0,0)"/>
<path d="" fill="#000000" transform="translate(0,0)"/>
<path d="" fill="#000000" transform="translate(0,0)"/>
<path d="" fill="#000000" transform="translate(0,0)"/>
<path d="" fill="#000000" transform="translate(0,0)"/>
<path d="" fill="#000000" transform="translate(0,0)"/>
<path d="" fill="#000000" transform="translate(0,0)"/>
<path d="" fill="#000000" transform="translate(0,0)"/>
<path d="" fill="#000000" transform="translate(0,0)"/>
<path d="" fill="#000000" transform="translate(0,0)"/>
<path d="" fill="#000000" transform="translate(0,0)"/>
<path d="" fill="#000000" transform="translate(0,0)"/>
<path d="" fill="#000000" transform="translate(0,0)"/>
<path d="" fill="#000000" transform="translate(0,0)"/>
<path d="" fill="#000000" transform="translate(0,0)"/>
<path d="" fill="#000000" transform="translate(0,0)"/>
<path d="" fill="#000000" transform="translate(0,0)"/>
<path d="" fill="#000000" transform="translate(0,0)"/>
<path d="" fill="#000000" transform="translate(0,0)"/>
<path d="" fill="#000000" transform="translate(0,0)"/>
<path d="" fill="#000000" transform="translate(0,0)"/>
<path d="" fill="#000000" transform="translate(0,0)"/>
<path d="" fill="#000000" transform="translate(0,0)"/>
<path d="" fill="#000000" transform="translate(0,0)"/>
<path d="" fill="#000000" transform="translate(0,0)"/>
<path d="" fill="#000000" transform="translate(0,0)"/>
<path d="" fill="#000000" transform="translate(0,0)"/>
<path d="" fill="#000000" transform="translate(0,0)"/>
<path d="" fill="#000000" transform="translate(0,0)"/>
<path d="" fill="#000000" transform="translate(0,0)"/>
<path d="" fill="#000000" transform="translate(0,0)"/>
<path d="" fill="#000000" transform="translate(0,0)"/>
<path d="" fill="#000000" transform="translate(0,0)"/>
<path d="" fill="#000000" transform="translate(0,0)"/>
<path d="" fill="#000000" transform="translate(0,0)"/>
<path d="" fill="#000000" transform="translate(0,0)"/>
<path d="" fill="#000000" transform="translate(0,0)"/>
<path d="" fill="#000000" transform="translate(0,0)"/>
</svg>
